<?xml version="1.0" standalone="no"?><!DOCTYPE svg PUBLIC "-//W3C//DTD SVG 1.1//EN" "http://www.w3.org/Graphics/SVG/1.1/DTD/svg11.dtd"><svg t="1515744967542" class="icon" style="" viewBox="0 0 1170 1024" version="1.1" xmlns="http://www.w3.org/2000/svg" p-id="2411" xmlns:xlink="http://www.w3.org/1999/xlink" width="228.515625" height="200"><defs><style type="text/css"></style></defs><path d="M1060.275304 804.275304H840.550607v73.587044H0v72.550607h840.550607v73.587045h219.724697v-73.587045h109.862348v-72.550607h-109.862348v-73.587044zM914.137652 950.412955v-72.550607h72.550607v72.550607h-72.550607zM694.412955 402.137652H475.724696v73.587044H0v72.550608h475.724696v73.587044h218.688259v-73.587044h475.724697v-72.550608H694.412955v-73.587044z m-72.550607 146.137652h-73.587044v-72.550608h73.587044v72.550608zM328.550607 73.587045V0H109.862348v73.587045H0v72.550607h109.862348v73.587044h218.688259v-73.587044h841.587045V73.587045H328.550607z m-146.137652 72.550607V73.587045h73.587045v72.550607h-73.587045z" fill="#ffffff" p-id="2412" data-spm-anchor-id="a313x.7781069.0.i4" class="selected"></path></svg>